<svg xmlns="http://www.w3.org/2000/svg" xmlns:xlink="http://www.w3.org/1999/xlink" viewBox="0 0 661.56 661.56"><defs><style>.cls-1{isolation:isolate;}.cls-2{fill:url(#linear-gradient);}.cls-3,.cls-5{fill:#fff;}.cls-3{opacity:0.1;mix-blend-mode:screen;}.cls-4{opacity:0.2;}.cls-4,.cls-6,.cls-8{mix-blend-mode:multiply;}.cls-6{fill:url(#linear-gradient-2);}.cls-7{fill:#333;}.cls-8{fill:#e6e6e6;}</style><linearGradient id="linear-gradient" x1="596.65" y1="19.66" x2="15.1" y2="700.2" gradientUnits="userSpaceOnUse"><stop offset="0" stop-color="#ff82fd"/><stop offset="1" stop-color="#4a0e88"/></linearGradient><linearGradient id="linear-gradient-2" x1="126.41" y1="538.24" x2="636.91" y2="20.04" gradientUnits="userSpaceOnUse"><stop offset="0" stop-color="#fff"/><stop offset="0.37" stop-color="#fdfdfd"/><stop offset="0.51" stop-color="#f6f6f6"/><stop offset="0.6" stop-color="#ebebeb"/><stop offset="0.68" stop-color="#dadada"/><stop offset="0.75" stop-color="#c4c4c4"/><stop offset="0.8" stop-color="#a8a8a8"/><stop offset="0.86" stop-color="#888"/><stop offset="0.91" stop-color="#626262"/><stop offset="0.95" stop-color="#373737"/><stop offset="0.99" stop-color="#090909"/><stop offset="1"/></linearGradient></defs><title>chatriq-logo</title><g class="cls-1"><g id="Layer_2" data-name="Layer 2"><g id="Layer_2-2" data-name="Layer 2"><path class="cls-2" d="M661.56,330.75c0,5.63-.13,11.27-.46,16.84a319.47,319.47,0,0,1-9.64,64.19A330.81,330.81,0,0,1,330.81,661.56c-135.77,0-252.4-81.82-303.34-198.78a331.13,331.13,0,0,1,3-270.69,330.81,330.81,0,0,1,468.75-146C596.39,103.65,661.56,209.59,661.56,330.75Z"/><path class="cls-3" d="M661.56,330.75a331.08,331.08,0,0,1-69.5,202.83C625,354.73,495.34,89,207.43,23.86A330.7,330.7,0,0,1,499.17,46.09C596.39,103.65,661.56,209.59,661.56,330.75Z"/><path class="cls-3" d="M661.56,330.75c0,5.63-.13,11.27-.46,16.84C499.89,229.72,312.3,105.21,30.42,192.09a330.81,330.81,0,0,1,468.75-146C596.39,103.65,661.56,209.59,661.56,330.75Z"/><path class="cls-4" d="M522.32,267.69A52.58,52.58,0,0,0,475.8,220.3a1179.75,1179.75,0,0,0-254.08,0,52.45,52.45,0,0,0-46.5,47.08c-2.7,28.68-4.14,58.48-4.14,89,0,28.49,1.3,56.27,3.67,83.16l-.07,0c.14,1.53.31,3,.45,4.55,0,.37.05.75.09,1.12,0,.13,0,.26.05.39A802.07,802.07,0,0,0,195.86,567.2l39.64-60.82A23.42,23.42,0,0,1,257,495.87c29.52,2.33,60.19,3.6,91.72,3.6a1149.64,1149.64,0,0,0,127.05-6.86,52.59,52.59,0,0,0,46.53-47.4c2.69-28.61,4.09-58.32,4.09-88.79S525,296.28,522.32,267.69Z"/><path class="cls-5" d="M504.36,242a52.56,52.56,0,0,0-46.52-47.39,1178,1178,0,0,0-254.08,0,52.42,52.42,0,0,0-46.49,47.08c-2.71,28.68-4.15,58.48-4.15,89,0,28.48,1.3,56.27,3.67,83.16l-.06,0c.13,1.53.3,3,.44,4.55l.09,1.12c0,.13,0,.25.06.39A800.94,800.94,0,0,0,177.9,541.54l39.65-60.81a23.41,23.41,0,0,1,21.51-10.52c29.52,2.33,60.19,3.61,91.73,3.61a1149.46,1149.46,0,0,0,127-6.86,52.58,52.58,0,0,0,46.53-47.4c2.69-28.62,4.09-58.32,4.09-88.79S507.05,270.62,504.36,242Z"/><path class="cls-5" d="M183.75,508.57a817.68,817.68,0,0,1-13.38-89.85l-.51-6c-2.41-27.22-3.63-54.81-3.63-82,0-29.52,1.38-59.06,4.09-87.81a39.48,39.48,0,0,1,34.9-35.28,1164.78,1164.78,0,0,1,251.17,0,39.66,39.66,0,0,1,34.92,35.58c2.67,28.44,4,57.88,4,87.51s-1.36,59.06-4,87.56a39.67,39.67,0,0,1-34.93,35.59,1134.14,1134.14,0,0,1-125.59,6.79c-30.2,0-60.71-1.2-90.7-3.57-1-.07-1.94-.11-2.91-.11a36.41,36.41,0,0,0-30.62,16.54Z"/><path class="cls-6" d="M180.7,525.25a811.68,811.68,0,0,1-16.86-105.91l-.51-6c-2.43-27.41-3.65-55.2-3.65-82.58,0-29.72,1.38-59.47,4.11-88.43a46.08,46.08,0,0,1,40.7-41.18,1173.07,1173.07,0,0,1,252.62,0,46.25,46.25,0,0,1,40.72,41.49c2.7,28.64,4.07,58.29,4.07,88.12s-1.37,59.47-4.07,88.18a46.25,46.25,0,0,1-40.72,41.49,1142.62,1142.62,0,0,1-126.32,6.82c-30.37,0-61.06-1.2-91.21-3.58-.8-.07-1.6-.1-2.4-.1a29.85,29.85,0,0,0-25.12,13.57Z"/><circle class="cls-7" cx="257.24" cy="330.77" r="18.48"/><circle class="cls-7" cx="330.79" cy="330.77" r="18.48"/><circle class="cls-7" cx="404.33" cy="330.77" r="18.48"/><path class="cls-8" d="M296.2,460.16c-18.75-.53-37.57-1.57-56.12-3-1-.06-1.9-.13-2.89-.13a36.39,36.39,0,0,0-30.61,16.59l-22.82,34.94a819.73,819.73,0,0,1-13.37-89.81l-.53-6c-.85-9.9-1.57-19.8-2.09-29.76C190.81,428,249.38,451.74,296.2,460.16Z"/></g></g></g></svg>